<?xml version="1.0" encoding="UTF-8"?>
<svg xmlns="http://www.w3.org/2000/svg" xmlns:xlink="http://www.w3.org/1999/xlink" width="1920" height="1080" viewBox="0 0 1920 1080">
<defs>
<g>
<g id="glyph-0-0">
<path d="M 0.355469 -0.859375 C 0.277344 -0.890625 0.21875 -0.9375 0.183594 -0.996094 C 0.148438 -1.054688 0.128906 -1.117188 0.128906 -1.1875 C 0.128906 -1.304688 0.171875 -1.402344 0.253906 -1.480469 C 0.335938 -1.558594 0.457031 -1.597656 0.609375 -1.597656 C 0.757812 -1.597656 0.875 -1.558594 0.960938 -1.480469 C 1.042969 -1.402344 1.085938 -1.304688 1.085938 -1.1875 C 1.085938 -1.113281 1.066406 -1.046875 1.027344 -0.992188 C 0.988281 -0.933594 0.933594 -0.890625 0.867188 -0.859375 C 0.953125 -0.824219 1.019531 -0.769531 1.066406 -0.703125 C 1.113281 -0.636719 1.136719 -0.558594 1.136719 -0.46875 C 1.136719 -0.320312 1.089844 -0.203125 0.996094 -0.109375 C 0.902344 -0.0195312 0.777344 0.0273438 0.621094 0.0273438 C 0.476562 0.0273438 0.355469 -0.0117188 0.261719 -0.0859375 C 0.148438 -0.175781 0.0898438 -0.296875 0.0898438 -0.453125 C 0.0898438 -0.539062 0.113281 -0.621094 0.152344 -0.691406 C 0.195312 -0.765625 0.265625 -0.820312 0.355469 -0.859375 M 0.417969 -1.164062 C 0.417969 -1.105469 0.4375 -1.058594 0.46875 -1.023438 C 0.503906 -0.988281 0.550781 -0.972656 0.609375 -0.972656 C 0.664062 -0.972656 0.710938 -0.988281 0.746094 -1.023438 C 0.78125 -1.058594 0.796875 -1.105469 0.796875 -1.167969 C 0.796875 -1.222656 0.78125 -1.269531 0.746094 -1.304688 C 0.710938 -1.339844 0.667969 -1.355469 0.609375 -1.355469 C 0.550781 -1.355469 0.503906 -1.339844 0.472656 -1.304688 C 0.4375 -1.269531 0.417969 -1.222656 0.417969 -1.164062 M 0.390625 -0.484375 C 0.390625 -0.398438 0.414062 -0.335938 0.457031 -0.289062 C 0.5 -0.242188 0.550781 -0.21875 0.617188 -0.21875 C 0.679688 -0.21875 0.730469 -0.238281 0.773438 -0.285156 C 0.8125 -0.332031 0.835938 -0.394531 0.835938 -0.480469 C 0.835938 -0.554688 0.8125 -0.613281 0.773438 -0.660156 C 0.730469 -0.707031 0.675781 -0.726562 0.613281 -0.726562 C 0.539062 -0.726562 0.480469 -0.703125 0.445312 -0.652344 C 0.410156 -0.601562 0.390625 -0.542969 0.390625 -0.484375 Z "/>
</g>
</g>
</defs>
<g fill="rgb(100%, 100%, 100%)" fill-opacity="1">
<use xlink:href="#glyph-0-0" x="30" y="22.011719"/>
</g>
</svg>
